<svg xmlns="http://www.w3.org/2000/svg" xmlns:xlink="http://www.w3.org/1999/xlink" width="1080" zoomAndPan="magnify" viewBox="0 0 810 809.999993" height="1080" preserveAspectRatio="xMidYMid meet" version="1.0"><defs><clipPath id="07a7607a5d"><path d="M 169.828125 81 L 640.078125 81 L 640.078125 729 L 169.828125 729 Z M 169.828125 81 " clip-rule="nonzero"/></clipPath><clipPath id="3e14ce56c3"><path d="M 0.910156 0 L 471.078125 0 L 471.078125 648 L 0.910156 648 Z M 0.910156 0 " clip-rule="nonzero"/></clipPath><clipPath id="987d4f1956"><rect x="0" width="472" y="0" height="648"/></clipPath></defs><g clip-path="url(#07a7607a5d)"><g transform="matrix(1, 0, 0, 1, 169, 81)"><g clip-path="url(#987d4f1956)"><g clip-path="url(#3e14ce56c3)"><path fill="#d5ff5f" d="M 471.160156 117.0625 C 471.160156 78.308594 471.160156 39.550781 471.160156 0.316406 C 314.226562 108.449219 157.765625 216.105469 0.828125 324.238281 C 157.765625 431.894531 314.226562 539.550781 471.160156 647.683594 C 471.160156 608.925781 471.160156 570.171875 471.160156 531.894531 L 169.726562 324.71875 Z M 471.160156 117.0625 " fill-opacity="1" fill-rule="nonzero"/></g></g></g></g></svg>