<svg width="16" height="21" viewBox="0 0 16 21" fill="none" xmlns="http://www.w3.org/2000/svg">
<path d="M0 20.4167V0H8.05729C9.63715 0 11.0955 0.486111 12.4323 1.45833C13.7691 2.43056 14.4375 3.77951 14.4375 5.50521C14.4375 6.74479 14.158 7.69878 13.599 8.36719C13.0399 9.03559 12.5174 9.51562 12.0313 9.80729C12.6389 10.0747 13.3134 10.5729 14.0547 11.3021C14.796 12.0312 15.1667 13.125 15.1667 14.5833C15.1667 16.7465 14.3767 18.2595 12.7969 19.1224C11.217 19.9852 9.73438 20.4167 8.34896 20.4167H0ZM4.41146 16.3333H8.20313C9.36979 16.3333 10.0807 16.0356 10.3359 15.4401C10.5911 14.8446 10.7188 14.4132 10.7188 14.1458C10.7188 13.8785 10.5911 13.447 10.3359 12.8516C10.0807 12.2561 9.33333 11.9583 8.09375 11.9583H4.41146V16.3333ZM4.41146 8.02083H7.80208C8.60417 8.02083 9.1875 7.81424 9.55208 7.40104C9.91667 6.98785 10.099 6.52604 10.099 6.01562C10.099 5.43229 9.89236 4.95833 9.47917 4.59375C9.06597 4.22917 8.53125 4.04687 7.875 4.04687H4.41146V8.02083Z" fill="#1D1B20"/>
</svg>
