<svg width="25" height="24" viewBox="0 0 25 24" fill="none" xmlns="http://www.w3.org/2000/svg">
<rect width="25" height="24" fill="#B5B5B5"/>
<path d="M11.4585 3.99998H4.16683C3.61429 3.99998 3.08439 4.2107 2.69369 4.58577C2.30299 4.96084 2.0835 5.46955 2.0835 5.99998V20C2.0835 20.5304 2.30299 21.0391 2.69369 21.4142C3.08439 21.7893 3.61429 22 4.16683 22H18.7502C19.3027 22 19.8326 21.7893 20.2233 21.4142C20.614 21.0391 20.8335 20.5304 20.8335 20V13M19.271 2.49998C19.6854 2.10216 20.2474 1.87866 20.8335 1.87866C21.4195 1.87866 21.9816 2.10216 22.396 2.49998C22.8104 2.89781 23.0432 3.43737 23.0432 3.99998C23.0432 4.56259 22.8104 5.10216 22.396 5.49998L12.5002 15L8.3335 16L9.37516 12L19.271 2.49998Z" stroke="black" stroke-width="2" stroke-linecap="round" stroke-linejoin="round"/>
</svg>
