<svg width="77" height="77" viewBox="0 0 77 77" fill="none" xmlns="http://www.w3.org/2000/svg">
<path d="M4.07831 0.0230133C4.15076 0.0228547 4.15076 0.0228547 4.22467 0.0226929C4.3875 0.0224097 4.55033 0.0225521 4.71316 0.0226904C4.83118 0.0225741 4.94921 0.0224318 5.06723 0.0222658C5.39356 0.0218836 5.71988 0.021875 6.0462 0.0219249C6.40047 0.0219149 6.75474 0.0215632 7.109 0.0212553C7.73058 0.0207638 8.35216 0.0204957 8.97374 0.0203781C9.64085 0.0202513 10.308 0.0199977 10.9751 0.0195892C11.0382 0.0195507 11.0382 0.0195507 11.1027 0.0195115C11.2741 0.0194067 11.4456 0.0193013 11.6171 0.019195C13.6965 0.017908 15.7759 0.0172602 17.8553 0.0167242C18.5296 0.0165495 19.2039 0.0163487 19.8782 0.0161305C19.9257 0.0161151 19.9733 0.0160997 20.0223 0.0160838C20.2147 0.0160215 20.4072 0.0159591 20.5996 0.0158964C23.8913 0.0148262 27.1829 0.0139101 30.4746 0.0134684C30.7332 0.0134336 30.9917 0.0133981 31.2503 0.0133625C31.3016 0.0133555 31.3529 0.0133485 31.4058 0.0133412C31.9254 0.0132699 32.4451 0.0131979 32.9648 0.0131248C33.069 0.0131102 33.1732 0.0130957 33.2774 0.0130812C36.6237 0.0126172 39.97 0.0112839 43.3163 0.00934758C45.7205 0.00795683 48.1248 0.00667301 50.529 0.00624955C50.5784 0.00624079 50.6279 0.00623203 50.6788 0.00622301C51.7643 0.00603328 52.8498 0.00591111 53.9353 0.00585203C54.3721 0.00582733 54.8089 0.00579427 55.2456 0.00575899C55.2934 0.00575537 55.3413 0.00575176 55.3905 0.00574804C56.9302 0.00562795 58.4698 0.00477985 60.0095 0.00355816C61.5604 0.00233187 63.1114 0.00186204 64.6623 0.00243096C64.8767 0.0025095 65.0911 0.00257967 65.3056 0.00264485C65.3686 0.0026645 65.3686 0.0026645 65.4329 0.00268454C66.0979 0.00286993 66.7629 0.00225542 67.428 0.00130598C68.0822 0.000388604 68.7364 0.000343559 69.3906 0.00115993C69.7404 0.00157186 70.0902 0.00160687 70.4401 0.000590429C70.7586 -0.000327375 71.077 -0.000141038 71.3955 0.000912721C71.5098 0.00109981 71.6241 0.000890654 71.7384 0.000228154C73.0886 -0.00708695 74.1646 0.339343 75.1628 1.29586C75.9519 2.11863 76.3451 3.13822 76.3418 4.27562C76.342 4.34793 76.342 4.34793 76.3421 4.4217C76.3424 4.58351 76.3422 4.74532 76.3421 4.90713C76.3422 5.0247 76.3423 5.14228 76.3424 5.25985C76.3428 5.58436 76.3427 5.90887 76.3426 6.23337C76.3426 6.58588 76.3429 6.93839 76.3431 7.2909C76.3435 7.90921 76.3437 8.52751 76.3437 9.14581C76.3438 9.80932 76.3439 10.4728 76.3442 11.1363C76.3443 11.1782 76.3443 11.2201 76.3443 11.2633C76.3444 11.4339 76.3445 11.6045 76.3445 11.7752C76.3455 13.7955 76.3459 15.8158 76.3462 17.8361C76.3463 18.842 76.3465 19.8479 76.3468 20.8538C76.3475 24.0803 76.3482 27.3067 76.3484 30.5332C76.3484 30.6874 76.3484 30.8416 76.3484 30.9958C76.3484 31.3051 76.3484 31.6144 76.3485 31.9237C76.3485 32.2858 76.3485 32.6479 76.3485 33.0099C76.3485 33.1136 76.3485 33.2172 76.3486 33.3208C76.3488 36.6494 76.3497 39.978 76.3511 43.3065C76.3521 45.6982 76.353 48.09 76.3532 50.4817C76.3533 50.5555 76.3533 50.5555 76.3533 50.6307C76.3534 51.7105 76.3534 52.7903 76.3535 53.87C76.3535 54.2564 76.3535 54.6427 76.3535 55.0291C76.3535 55.1252 76.3535 55.2213 76.3535 55.3175C76.3536 56.849 76.3542 58.3806 76.355 59.9121C76.3559 61.4548 76.3562 62.9975 76.3557 64.5401C76.3557 64.7534 76.3556 64.9666 76.3555 65.1798C76.3555 65.2216 76.3555 65.2634 76.3555 65.3065C76.3553 65.968 76.3558 66.6295 76.3565 67.291C76.3571 67.9417 76.3571 68.5923 76.3565 69.243C76.3562 69.591 76.3561 69.9389 76.3569 70.2869C76.3576 70.6037 76.3574 70.9204 76.3566 71.2371C76.3565 71.3508 76.3566 71.4645 76.3571 71.5782C76.3625 72.9112 76.0781 74.0806 75.1459 75.0914C74.181 76.0158 73.0467 76.3709 71.7234 76.3617C71.6406 76.3618 71.5577 76.362 71.4749 76.3622C71.2493 76.3626 71.0238 76.3619 70.7982 76.361C70.5505 76.3602 70.3027 76.3605 70.055 76.3606C69.5751 76.3607 69.0951 76.3599 68.6152 76.3587C68.0596 76.3574 67.5039 76.3573 66.9482 76.3572C65.4825 76.3562 64.0168 76.3537 62.5512 76.3514C59.2756 76.3477 56.0001 76.3441 52.6253 76.3403C52.6253 66.5701 52.6253 56.8 52.6253 46.7338C55.8885 46.7338 59.1518 46.7338 62.5139 46.7338C62.6024 45.9966 62.6024 45.9966 62.6926 45.2445C62.7369 44.8901 62.7815 44.5358 62.8268 44.1815C62.8391 44.0853 62.8513 43.9891 62.8636 43.893C62.8961 43.6375 62.9288 43.3821 62.9614 43.1267C62.9819 42.9666 63.0023 42.8066 63.0227 42.6465C63.0869 42.1441 63.1511 41.6417 63.2154 41.1394C63.2893 40.5619 63.363 39.9844 63.4366 39.407C63.4938 38.9578 63.5512 38.5087 63.6087 38.0596C63.6429 37.7923 63.6771 37.525 63.7111 37.2577C63.7429 37.0076 63.7749 36.7575 63.807 36.5075C63.8188 36.4157 63.8305 36.324 63.8421 36.2322C63.858 36.1072 63.874 35.9823 63.8902 35.8574C63.9036 35.7525 63.9036 35.7525 63.9172 35.6454C63.9436 35.475 63.9436 35.475 64.0032 35.2963C60.2485 35.2963 56.4938 35.2963 52.6253 35.2963C52.6197 33.2248 52.6197 33.2248 52.6141 31.1115C52.6125 30.6776 52.6108 30.2437 52.6092 29.7967C52.6083 29.2614 52.6083 29.2614 52.6082 29.0097C52.608 28.8362 52.6074 28.6628 52.6064 28.4893C52.5926 25.9433 52.5926 25.9433 53.0422 24.8715C53.0659 24.8131 53.0896 24.7548 53.1139 24.6947C53.5347 23.7564 54.3175 23.1288 55.2463 22.727C56.5753 22.2235 57.9833 22.2414 59.3823 22.2446C59.5116 22.2447 59.6408 22.2447 59.7701 22.2448C60.2454 22.2451 60.7207 22.2459 61.1959 22.2467C62.2599 22.2479 63.3239 22.2491 64.4202 22.2504C64.4202 18.8889 64.4202 15.5273 64.4202 12.0639C61.894 11.8618 59.3851 11.6883 56.8547 11.6469C56.8121 11.6462 56.7694 11.6455 56.7254 11.6447C52.4431 11.5757 48.2709 12.3894 45.0598 15.3998C45.0304 15.4272 45.001 15.4546 44.9707 15.4828C42.8303 17.4918 41.6397 20.3395 41.1394 23.1886C41.1219 23.2878 41.1219 23.2878 41.1042 23.389C40.8824 24.7386 40.8698 26.0796 40.8658 27.4431C40.8649 27.6928 40.8635 27.9425 40.8621 28.1922C40.8583 28.9183 40.8555 29.6445 40.8527 30.3706C40.8453 31.9961 40.8379 33.6216 40.8303 35.2963C37.5474 35.2963 34.2645 35.2963 30.8821 35.2963C30.8821 39.0707 30.8821 42.8451 30.8821 46.7338C34.165 46.7338 37.4479 46.7338 40.8303 46.7338C40.8303 56.5039 40.8303 66.2741 40.8303 76.3403C31.5547 76.3475 31.5547 76.3475 28.0017 76.3489C27.0726 76.3492 26.1435 76.3496 25.2144 76.35C25.1021 76.35 24.9897 76.3501 24.8773 76.3501C23.0862 76.3509 21.2952 76.3522 19.5041 76.3539C17.6631 76.3556 15.8221 76.3567 13.9811 76.357C13.721 76.3571 13.4609 76.3571 13.2008 76.3572C13.1496 76.3572 13.0984 76.3572 13.0456 76.3572C12.222 76.3575 11.3984 76.3583 10.5748 76.3593C9.74654 76.3604 8.91826 76.3608 8.08998 76.3605C7.59806 76.3604 7.10616 76.3608 6.61424 76.3618C6.24658 76.3626 5.87892 76.3624 5.51126 76.3619C5.36276 76.3618 5.21426 76.362 5.06576 76.3626C3.53425 76.368 2.32626 76.1549 1.16767 75.0632C0.225867 74.0643 -0.00307435 72.9195 0.00217917 71.6C0.00199256 71.4814 0.00172765 71.3628 0.001392 71.2443C0.000696447 70.9184 0.00111224 70.5925 0.00170969 70.2666C0.00216303 69.9121 0.00158058 69.5576 0.00113022 69.2031C0.000484543 68.5818 0.000498301 67.9604 0.000959784 67.3391C0.00145182 66.6725 0.00155511 66.006 0.00118566 65.3394C0.00116258 65.2973 0.00113946 65.2551 0.00111567 65.2117C0.00102037 65.0401 0.00092227 64.8685 0.000820712 64.6969C-0.000124131 63.0993 -0.000188991 61.5016 0.000310779 59.9039C0.000332974 59.833 0.00033313 59.833 0.000355773 59.7605C0.000370593 59.7131 0.000385498 59.6657 0.000400767 59.6169C0.000851673 58.1729 0.000967865 56.7289 0.000753902 55.2849C0.000740056 55.1882 0.000726275 55.0915 0.000712544 54.9948C0.00065706 54.6062 0.00060029 54.2176 0.000541203 53.829C0.000377323 52.7428 0.00027505 51.6566 0.0002217 50.5703C0.000219261 50.5209 0.000216941 50.4714 0.000214428 50.4204C0.000141285 48.8442 0.000342786 47.2681 0.000731178 45.6919C0.000743733 45.6408 0.00075642 45.5896 0.000769355 45.537C0.00097397 44.7068 0.00119158 43.8766 0.00141063 43.0464C0.00227851 39.7537 0.00223854 36.461 0.00136973 33.1684C0.00115149 32.3386 0.000934949 31.5088 0.000731178 30.6791C0.000718589 30.628 0.000705973 30.5769 0.000693001 30.5242C0.000307673 28.9497 0.000144074 27.3752 0.0002217 25.8006C0.000224128 25.7512 0.000226925 25.7018 0.000229426 25.6508C0.000285269 24.5658 0.000398483 23.4808 0.000563473 22.3957C0.000622295 22.0075 0.000677866 21.6193 0.000732996 21.2311C0.000746826 21.1345 0.000760952 21.0379 0.000775263 20.9413C0.000988579 19.4977 0.000807154 18.054 0.000355773 16.6104C0.000340977 16.5631 0.000326024 16.5158 0.000310779 16.467C0.000296003 16.4198 0.000281464 16.3725 0.00026624 16.3239C-0.000226637 14.7308 -4.57141e-05 13.1378 0.000897065 11.5447C0.000995777 11.3737 0.00109194 11.2026 0.00118566 11.0315C0.00120893 10.9895 0.00123213 10.9476 0.00125611 10.9043C0.0016086 10.2395 0.00136307 9.57479 0.000869342 8.91003C0.000396604 8.25639 0.000577516 7.60274 0.00140791 6.9491C0.00183398 6.59945 0.00197668 6.2498 0.00133564 5.90015C0.000758396 5.58205 0.00100324 5.26397 0.00190375 4.94587C0.00208371 4.83152 0.00196496 4.71718 0.00150971 4.60283C-0.000695699 4.00658 0.013899 3.4628 0.203379 2.89006C0.225111 2.82302 0.246842 2.75599 0.269232 2.68692C0.676572 1.68842 1.43979 0.866531 2.40748 0.388108C2.955 0.163069 3.48496 0.0214046 4.07831 0.0230133Z" fill="currentColor"/>
</svg>
