<svg width="47" height="47" viewBox="0 0 47 47" fill="none" xmlns="http://www.w3.org/2000/svg">
<path d="M18.9237 0.0095289C19.1951 0.00946305 19.4665 0.00926603 19.7379 0.00902481C20.69 0.00818016 21.6421 0.0078015 22.5942 0.00787412C23.4732 0.00792907 24.3522 0.00696324 25.2312 0.00551343C25.9929 0.0043031 26.7546 0.00382293 27.5163 0.00388109C27.9681 0.00390415 28.4199 0.00366108 28.8717 0.00267266C36.7893 -0.0134192 36.7893 -0.0134191 40.1894 1.76716C40.2831 1.81598 40.3768 1.8648 40.4734 1.9151C43.3758 3.51734 45.2772 6.19731 46.2176 9.32873C47.1 12.4303 46.99 15.729 46.9905 18.9237C46.9905 19.1951 46.9907 19.4665 46.991 19.7379C46.9918 20.69 46.9922 21.6421 46.9921 22.5942C46.9921 23.4732 46.993 24.3522 46.9945 25.2312C46.9957 25.9929 46.9962 26.7546 46.9961 27.5163C46.9961 27.9681 46.9963 28.4199 46.9973 28.8717C47.0134 36.7894 47.0134 36.7894 45.2328 40.1894C45.184 40.2831 45.1352 40.3769 45.0849 40.4735C43.4827 43.3758 40.8027 45.2772 37.6713 46.2176C34.5629 47.102 31.2564 46.9901 28.0548 46.9905C27.7817 46.9906 27.5085 46.9908 27.2354 46.991C26.2775 46.9919 25.3195 46.9923 24.3616 46.9922C23.4768 46.9921 22.5921 46.9931 21.7074 46.9946C20.941 46.9958 20.1745 46.9962 19.408 46.9962C18.9533 46.9962 18.4986 46.9964 18.0439 46.9974C10.2101 47.0132 10.2101 47.0132 6.81065 45.2329C6.71691 45.1841 6.62317 45.1353 6.52659 45.085C3.62422 43.4827 1.72284 40.8028 0.78242 37.6713C-0.0999844 34.5697 0.00996562 31.2711 0.00952885 28.0764C0.009463 27.805 0.00926635 27.5336 0.00902513 27.2622C0.00818049 26.31 0.00780235 25.3579 0.00787497 24.4058C0.00792992 23.5268 0.00696428 22.6478 0.00551447 21.7689C0.00430415 21.0071 0.00382342 20.2454 0.00388157 19.4837C0.00390463 19.0319 0.00366106 18.5801 0.00267264 18.1283C-0.0134192 10.2107 -0.0134183 10.2107 1.76716 6.81066C1.81598 6.71692 1.8648 6.62318 1.9151 6.5266C3.51733 3.62422 6.1973 1.72284 9.32872 0.78242C12.4303 -0.0999854 15.7289 0.00996567 18.9237 0.0095289ZM14.0707 4.41811C14.0071 4.4218 13.9435 4.42549 13.878 4.42928C11.7963 4.55352 9.62005 4.88026 7.91104 6.16876C7.82664 6.23093 7.74224 6.29311 7.65529 6.35717C5.81483 7.78188 4.86366 9.90244 4.54727 12.1683C4.28773 14.2719 4.3071 16.3958 4.31012 18.5111C4.31059 18.9494 4.31015 19.3877 4.30987 19.826C4.30953 20.5615 4.30996 21.2971 4.31084 22.0326C4.31184 22.874 4.31152 23.7154 4.31051 24.5568C4.30967 25.2883 4.30956 26.0198 4.31004 26.7513C4.31032 27.1842 4.31038 27.6171 4.30976 28.05C4.30773 29.6937 4.31842 31.3329 4.41831 32.974C4.42565 33.0948 4.43299 33.2156 4.44055 33.3401C4.61288 35.8933 5.19033 38.1204 6.99405 40.006C7.08004 40.1023 7.08004 40.1023 7.16778 40.2005C9.13194 42.3218 12.3566 42.5606 15.0636 42.6653C15.6067 42.6795 16.1498 42.6788 16.6929 42.6786C16.8482 42.6789 17.0034 42.6792 17.1587 42.6796C17.5754 42.6804 17.9921 42.6806 18.4088 42.6806C18.6711 42.6807 18.9333 42.6809 19.1955 42.6811C20.1158 42.682 21.0362 42.6824 21.9565 42.6823C22.8053 42.6822 23.6541 42.6832 24.5029 42.6847C25.2387 42.6859 25.9745 42.6863 26.7103 42.6863C27.1465 42.6863 27.5828 42.6865 28.0191 42.6875C29.6738 42.691 31.3241 42.6827 32.9762 42.582C33.0969 42.5746 33.2176 42.5672 33.3419 42.5597C35.3509 42.4235 37.4425 42.0726 39.089 40.8313C39.1734 40.7691 39.2578 40.707 39.3447 40.6429C41.1852 39.2182 42.1363 37.0976 42.4527 34.8317C42.7123 32.7282 42.6929 30.6042 42.6899 28.4889C42.6894 28.0506 42.6899 27.6124 42.6901 27.1741C42.6905 26.4385 42.69 25.703 42.6892 24.9675C42.6882 24.1261 42.6885 23.2847 42.6895 22.4433C42.6903 21.7118 42.6904 20.9803 42.69 20.2487C42.6897 19.8159 42.6896 19.383 42.6902 18.9501C42.6923 17.3064 42.6816 15.6671 42.5817 14.026C42.5744 13.9052 42.567 13.7844 42.5594 13.6599C42.3871 11.1068 41.8097 8.87962 40.006 6.99406C39.9486 6.92987 39.8913 6.86568 39.8322 6.79955C37.868 4.67814 34.6435 4.43961 31.9364 4.33476C31.3966 4.32063 30.8568 4.32124 30.3169 4.32144C30.1628 4.32116 30.0086 4.32085 29.8544 4.32051C29.4405 4.31971 29.0266 4.31948 28.6127 4.31942C28.3522 4.31936 28.0917 4.31916 27.8312 4.31892C26.9167 4.31807 26.0022 4.31769 25.0877 4.31777C24.2446 4.31782 23.4016 4.31686 22.5585 4.31541C21.8275 4.31419 21.0964 4.31372 20.3654 4.31377C19.932 4.3138 19.4987 4.31356 19.0653 4.31257C17.3981 4.30902 15.7355 4.3199 14.0707 4.41811Z" fill="currentColor"/>
<path d="M27.7176 12.1292C27.8579 12.1799 27.8579 12.1799 28.001 12.2316C30.9224 13.3688 33.1989 15.6461 34.5424 18.4547C34.999 19.502 35.3627 20.6235 35.5121 21.7577C35.5223 21.8339 35.5324 21.9101 35.5429 21.9887C35.7591 23.9376 35.5449 25.8778 34.8702 27.7181C34.8364 27.8117 34.8026 27.9052 34.7678 28.0015C33.5961 31.0115 31.2108 33.343 28.2879 34.6644C25.4584 35.8833 22.1631 35.9379 19.2812 34.8707C19.1879 34.8369 19.0945 34.8031 18.9983 34.7683C16.0766 33.6325 13.7997 31.3532 12.4564 28.5452C12.3374 28.2723 12.2308 27.9979 12.1287 27.7181C12.0891 27.6113 12.0495 27.5044 12.0087 27.3943C11.0962 24.7954 11.1761 21.8541 12.1287 19.2818C12.1625 19.1884 12.1963 19.095 12.2311 18.9988C13.3669 16.0771 15.6462 13.8002 18.4542 12.4569C18.7271 12.3379 19.0015 12.2312 19.2812 12.1292C19.4431 12.0698 19.4431 12.0698 19.6083 12.0092C22.2278 11.0968 25.1244 11.1784 27.7176 12.1292ZM20.1982 16.4391C20.1329 16.4661 20.0675 16.4932 20.0002 16.5211C18.1189 17.3671 16.7931 19.1429 16.0718 21.0241C15.461 22.9857 15.6175 24.9336 16.4386 26.8012C16.4656 26.8665 16.4927 26.9319 16.5206 26.9992C17.3666 28.8805 19.1424 30.2063 21.0235 30.9276C22.9852 31.5384 24.9331 31.3819 26.8006 30.5608C26.866 30.5338 26.9314 30.5067 26.9987 30.4788C28.88 29.6328 30.2057 27.857 30.9271 25.9759C31.6017 23.8092 31.3329 21.6765 30.3024 19.6772C30.0109 19.1648 29.6654 18.7151 29.2765 18.2731C29.2154 18.2032 29.1543 18.1333 29.0913 18.0614C27.7524 16.628 25.8053 15.7932 23.8626 15.6908C22.5591 15.6569 21.3906 15.9148 20.1982 16.4391Z" fill="currentColor"/>
<path d="M37.53 8.46126C38.25 8.9092 38.6539 9.61674 38.8744 10.4256C39.0042 11.2673 38.7612 12.0901 38.2636 12.7712C37.736 13.3658 37.1101 13.7272 36.3154 13.8114C35.46 13.8351 34.8207 13.6761 34.1371 13.138C33.47 12.4822 33.1829 11.8744 33.1292 10.9361C33.1269 10.0834 33.4391 9.47684 34.0085 8.85027C34.9992 7.91811 36.3485 7.85139 37.53 8.46126Z" fill="currentColor"/>
</svg>
