<svg width="895" height="895" viewBox="0 0 895 895" fill="none" xmlns="http://www.w3.org/2000/svg">
<path d="M456.565 0.32502C552.013 0.422005 647.697 36.5226 722.065 95.575C722.698 96.0765 723.331 96.5779 723.983 97.0946C732.075 103.527 739.93 110.119 747.483 117.177C749.575 119.12 751.696 120.985 753.878 122.825C762.631 130.42 771.021 138.862 778.487 147.723C780.326 149.881 782.26 151.936 784.19 154.013C790.069 160.522 795.256 167.552 800.527 174.553C801.86 176.305 803.215 178.034 804.593 179.751C822.33 202.034 836.244 227.238 849.065 252.575C849.666 253.753 849.666 253.753 850.28 254.955C871.836 297.507 884.318 344.536 890.545 391.653C890.874 394.135 891.213 396.616 891.566 399.095C903.965 487.298 882.768 579.279 807.253 712.2C805.865 713.998 804.469 715.789 803.065 717.575C802.175 718.731 801.286 719.887 800.397 721.044C794.898 728.165 789.157 734.948 783.065 741.575C781.894 742.904 780.727 744.237 779.565 745.575C778.399 746.909 777.232 748.242 776.065 749.575C775.425 750.31 774.784 751.045 774.124 751.802C765.689 761.34 756.762 770.658 747.03 778.888C744.606 780.97 742.282 783.15 739.94 785.325C677.532 842.083 594.725 877.94 511.815 890.325C511.145 890.426 510.475 890.527 509.785 890.632C489.152 893.71 468.605 894.935 447.753 894.825C446.146 894.82 446.146 894.82 444.506 894.815C380.857 894.576 319.082 880.824 261.065 854.575C260.287 854.228 259.51 853.881 258.708 853.523C225.331 838.564 193.91 818.393 165.817 795.022C163.404 793.029 160.949 791.089 158.503 789.138C148.479 780.931 139.117 771.832 130.065 762.575C129.261 761.771 128.456 760.966 127.628 760.138C126.782 759.292 125.936 758.446 125.065 757.575C124.046 756.573 124.046 756.573 123.007 755.552C118.129 750.731 113.503 745.801 109.065 740.575C108.231 739.607 107.397 738.639 106.538 737.641C81.5516 708.534 60.7523 676.046 44.0242 641.546C43.0752 639.596 42.1097 637.654 41.1434 635.712C20.58 593.831 8.4005 547.516 2.81524 501.325C2.69061 500.297 2.69061 500.297 2.56347 499.247C2.01864 494.694 1.52602 490.137 1.06524 485.575C0.956315 484.513 0.847389 483.452 0.735162 482.358C-0.308996 470.376 0.0652405 458.721 0.0652405 446.575C20.8552 446.575 41.6452 446.575 63.0652 446.575C63.4777 452.928 63.8902 459.28 64.3152 465.825C70.727 557.514 104.865 640.514 167.065 708.575C167.989 709.603 168.912 710.632 169.835 711.661C176.851 719.434 184.235 726.628 192.065 733.575C192.598 734.053 193.131 734.53 193.68 735.022C215.401 754.426 239.657 770.443 265.065 784.575C265.821 784.999 266.577 785.423 267.355 785.859C280.487 793.176 294.077 799.093 308.065 804.575C308.992 804.939 309.92 805.302 310.875 805.677C349.066 820.482 390.974 829.85 432.065 830.575C433.08 830.595 434.095 830.616 435.141 830.637C532.789 832.316 629.025 799.034 701.624 732.798C703.187 731.375 704.761 729.965 706.35 728.571C717.288 718.948 727.938 708.73 736.944 697.255C738.879 694.811 740.889 692.453 742.936 690.103C761.872 668.258 776.876 643.203 790.065 617.575C790.449 616.83 790.832 616.085 791.227 615.318C812.806 572.797 825.148 524.991 829.065 477.575C829.123 476.901 829.181 476.226 829.241 475.531C830.999 454.21 830.499 432.813 828.065 411.575C827.936 410.43 827.807 409.286 827.675 408.107C822.648 364.584 811.402 322.893 792.403 283.361C791.155 280.761 789.929 278.151 788.706 275.54C776.728 250.39 761.076 226.803 743.065 205.575C742.206 204.543 741.348 203.511 740.491 202.477C731.719 191.949 722.477 181.917 712.815 172.2C712.261 171.641 711.707 171.083 711.136 170.507C643.641 103.271 550.306 69.3982 456.565 64.2718C455.88 64.2327 455.194 64.1936 454.487 64.1533C452.596 64.0456 450.706 63.9429 448.815 63.8404C446.065 63.575 446.065 63.575 445.065 62.575C444.966 60.678 444.937 58.7773 444.936 56.8778C444.933 55.6598 444.93 54.4418 444.926 53.187C444.928 51.8476 444.93 50.5082 444.932 49.1688C444.932 47.805 444.931 46.4411 444.93 45.0773C444.928 42.2157 444.93 39.3541 444.935 36.4925C444.941 32.8168 444.937 29.1412 444.931 25.4656C444.928 22.6484 444.929 19.8312 444.931 17.0141C444.932 15.6584 444.931 14.3028 444.929 12.9471C444.926 11.0555 444.931 9.1639 444.936 7.27229C444.937 5.65465 444.937 5.65465 444.938 4.00434C445.233 -1.63599 452.172 0.336403 456.565 0.32502Z" fill="CurrentColor"/>
<path d="M74.0652 182.575C77.8557 184.003 81.3365 185.737 84.8777 187.7C85.8536 188.239 86.8294 188.778 87.8348 189.333C88.5708 189.743 89.3069 190.153 90.0652 190.575C88.5518 194.707 86.5256 198.421 84.2918 202.196C83.9268 202.818 83.5618 203.441 83.1857 204.082C82.4157 205.393 81.6441 206.703 80.8709 208.013C79.6973 210.001 78.5293 211.992 77.3621 213.983C76.6098 215.263 75.8573 216.542 75.1043 217.821C74.7594 218.409 74.4144 218.996 74.0591 219.602C72.3893 222.425 70.6637 225.163 68.8128 227.872C66.8843 230.318 66.8843 230.318 67.0652 232.575C68.876 233.904 68.876 233.904 71.2215 235.177C72.0787 235.666 72.9359 236.156 73.8192 236.661C75.1785 237.423 75.1785 237.423 76.5652 238.2C77.9246 238.973 77.9246 238.973 79.3113 239.763C81.5589 241.04 83.8103 242.311 86.0652 243.575C86.3167 242.89 86.5681 242.205 86.8272 241.5C88.2642 238.105 90.024 234.959 91.8738 231.778C92.2412 231.144 92.6086 230.51 92.9871 229.856C93.761 228.524 94.5369 227.193 95.3145 225.863C96.5041 223.823 97.6803 221.775 98.8563 219.727C99.6113 218.431 100.367 217.136 101.124 215.841C101.474 215.227 101.824 214.614 102.185 213.982C104.722 209.689 104.722 209.689 108.065 208.575C110.408 209.809 112.548 211.067 114.753 212.513C115.663 213.092 115.663 213.092 116.591 213.682C118.088 214.637 119.577 215.605 121.065 216.575C120.151 220.745 118.232 224.148 116.128 227.825C115.735 228.517 115.343 229.209 114.939 229.923C110.539 237.613 105.824 245.104 101.065 252.575C108.703 257.292 116.354 261.98 124.065 266.575C124.318 265.886 124.571 265.197 124.832 264.487C126.241 261.16 127.973 258.094 129.804 254.989C130.166 254.369 130.529 253.749 130.902 253.11C131.668 251.803 132.436 250.497 133.205 249.192C134.368 247.216 135.525 245.236 136.68 243.255C140.239 237.181 143.811 231.197 148.065 225.575C154.04 227.147 158.879 230.343 164.065 233.575C160.503 241.021 156.479 248.089 152.19 255.138C150.864 257.325 149.539 259.512 148.214 261.7C147.534 262.821 146.854 263.943 146.154 265.098C144.021 268.634 141.936 272.197 139.854 275.763C139.171 276.926 138.487 278.089 137.803 279.253C136.494 281.481 135.193 283.715 133.902 285.954C133.311 286.954 132.721 287.955 132.112 288.985C131.595 289.873 131.078 290.762 130.545 291.677C130.057 292.303 129.568 292.93 129.065 293.575C125.488 293.575 124.143 292.677 121.069 290.891C119.541 290.008 119.541 290.008 117.982 289.107C116.875 288.457 115.768 287.807 114.628 287.138C113.46 286.457 112.291 285.778 111.123 285.098C101.608 279.547 92.191 273.836 82.796 268.084C76.5657 264.275 70.3065 260.526 63.991 256.86C63.3252 256.473 62.6593 256.086 61.9733 255.687C58.7552 253.818 55.533 251.957 52.3043 250.107C51.1411 249.434 49.9781 248.76 48.8152 248.087C47.7995 247.504 46.7837 246.921 45.7371 246.32C43.1455 244.627 41.1568 242.845 39.0652 240.575C39.4201 239.985 39.775 239.396 40.1407 238.788C46.5397 228.15 52.9282 217.506 59.2567 206.825C59.9045 205.732 59.9045 205.732 60.5654 204.617C62.7059 201.005 64.8444 197.391 66.9805 193.776C67.7665 192.449 68.5526 191.121 69.3387 189.794C69.7016 189.178 70.0644 188.563 70.4383 187.929C72.9519 183.688 72.9519 183.688 74.0652 182.575Z" fill="CurrentColor"/>
<path d="M249.065 35.575C251.705 40.195 254.345 44.815 257.065 49.575C253.485 53.1553 250.124 55.5247 245.815 58.0164C245.12 58.4254 244.425 58.8343 243.709 59.2557C241.498 60.5554 239.282 61.8469 237.065 63.1375C234.85 64.433 232.635 65.7302 230.422 67.0301C229.048 67.8365 227.672 68.6403 226.295 69.4409C223.047 71.3421 220.087 73.3087 217.065 75.575C220.695 81.515 224.325 87.455 228.065 93.575C234.548 89.911 241.005 86.2467 247.343 82.3367C248.238 81.7873 249.134 81.2378 250.056 80.6717C251.842 79.5728 253.623 78.4654 255.398 77.3494C256.22 76.8451 257.042 76.3407 257.889 75.8211C258.623 75.3641 259.356 74.907 260.111 74.4361C262.065 73.575 262.065 73.575 265.065 74.575C266.889 77.1922 266.889 77.1922 268.753 80.45C269.687 82.0549 269.687 82.0549 270.639 83.6922C272.065 86.575 272.065 86.575 272.065 89.575C270.029 91.0236 268.071 92.2378 265.897 93.4461C265.265 93.8097 264.634 94.1733 263.983 94.5479C261.954 95.7135 259.916 96.8637 257.878 98.0125C255.858 99.1601 253.841 100.311 251.826 101.466C250.572 102.185 249.314 102.899 248.053 103.607C244.453 105.657 241.231 107.903 238.065 110.575C238.429 111.17 238.792 111.766 239.167 112.379C240.804 115.067 242.435 117.758 244.065 120.45C244.638 121.387 245.21 122.324 245.8 123.29C246.341 124.186 246.882 125.082 247.44 126.005C247.943 126.832 248.446 127.66 248.964 128.512C250.065 130.575 250.065 130.575 250.065 132.575C253.996 130.285 257.924 127.992 261.851 125.696C263.182 124.919 264.513 124.142 265.845 123.366C267.78 122.239 269.714 121.108 271.647 119.977C272.281 119.608 272.914 119.239 273.566 118.859C278.444 115.995 283.153 112.918 287.802 109.694C290.065 108.575 290.065 108.575 292.245 108.732C295.25 110.124 296.229 112.623 297.815 115.45C298.429 116.52 299.042 117.59 299.675 118.692C301.065 121.575 301.065 121.575 301.065 124.575C298.847 126.206 298.847 126.206 295.706 127.989C294.853 128.48 294.853 128.48 293.984 128.981C292.1 130.064 290.208 131.132 288.315 132.2C285.663 133.716 283.014 135.239 280.366 136.763C279.684 137.153 279.003 137.544 278.301 137.947C273.493 140.716 268.756 143.581 264.046 146.513C263.407 146.908 262.768 147.304 262.11 147.712C259.628 149.252 257.148 150.791 254.681 152.355C252.981 153.431 251.271 154.492 249.561 155.552C248.594 156.161 247.626 156.77 246.629 157.398C244.065 158.575 244.065 158.575 241.948 158.6C239.11 157.055 238.088 154.96 236.448 152.196C236.115 151.642 235.781 151.088 235.438 150.516C234.343 148.689 233.267 146.851 232.19 145.013C231.425 143.727 230.66 142.442 229.893 141.158C227.6 137.307 225.33 133.443 223.065 129.575C222.453 128.532 221.841 127.488 221.21 126.413C218.98 122.609 216.755 118.801 214.545 114.984C211.078 108.997 207.561 103.042 204.007 97.1063C203.128 95.6372 202.25 94.1681 201.371 92.699C200.07 90.5237 198.768 88.3496 197.459 86.1787C196.244 84.1624 195.035 82.1425 193.827 80.1219C193.461 79.5188 193.095 78.9157 192.718 78.2944C191.017 75.4372 189.615 72.8778 189.065 69.575C189.797 69.1491 190.529 68.7231 191.283 68.2842C194.795 66.238 198.306 64.1884 201.815 62.1375C202.779 61.5749 202.779 61.5749 203.762 61.0008C211.257 56.6219 218.722 52.2012 226.12 47.661C226.761 47.2681 227.402 46.8753 228.063 46.4706C231.152 44.5758 234.237 42.6731 237.314 40.7589C238.421 40.0782 239.527 39.3974 240.667 38.6961C241.64 38.0921 242.612 37.4881 243.615 36.8658C246.065 35.575 246.065 35.575 249.065 35.575Z" fill="CurrentColor"/>
<path d="M159.065 92.575C165.227 104.736 171.374 116.905 177.501 129.084C180.347 134.739 183.198 140.391 186.06 146.037C188.822 151.484 191.569 156.937 194.308 162.396C195.356 164.479 196.409 166.56 197.467 168.638C198.946 171.545 200.407 174.46 201.864 177.378C202.307 178.239 202.75 179.1 203.207 179.988C206.102 185.849 206.102 185.849 205.915 189.527C204.22 193.611 200.964 196.372 197.878 199.45C197.217 200.151 196.556 200.853 195.876 201.575C194.896 202.561 194.896 202.561 193.897 203.567C193.011 204.47 193.011 204.47 192.107 205.391C189.117 207.125 187.394 206.355 184.065 205.575C181.773 204.597 179.516 203.531 177.292 202.407C176.642 202.082 175.992 201.756 175.322 201.421C173.179 200.346 171.042 199.259 168.905 198.173C167.395 197.413 165.884 196.653 164.373 195.895C160.388 193.892 156.407 191.879 152.428 189.865C146.128 186.677 139.82 183.503 133.513 180.328C131.986 179.56 130.459 178.791 128.933 178.021C117.055 172.036 105.121 166.195 93.0652 160.575C93.0652 155.641 94.1461 154.909 97.3934 151.554C97.9863 150.962 98.5793 150.371 99.1902 149.763C99.76 149.152 100.33 148.542 100.917 147.913C105.16 143.636 105.16 143.636 108.901 143.384C113.336 145.053 117.408 147.184 121.565 149.45C133.516 155.835 145.621 161.889 157.758 167.912C159.414 168.733 161.07 169.556 162.725 170.38C164.246 171.136 165.769 171.892 167.293 172.645C170.983 174.481 174.564 176.39 178.065 178.575C172.554 166.533 166.636 154.717 160.565 142.95C160.01 141.872 160.01 141.872 159.444 140.772C155.998 134.088 152.547 127.409 148.932 120.813C148.5 120.021 148.067 119.228 147.622 118.411C146.864 117.032 146.095 115.659 145.313 114.293C143.002 110.097 143.002 110.097 143.306 107.593C144.178 105.275 145.185 104.082 146.936 102.341C147.511 101.767 148.085 101.193 148.677 100.602C149.279 100.016 149.882 99.4293 150.503 98.825C151.102 98.223 151.7 97.621 152.317 97.0008C156.798 92.575 156.798 92.575 159.065 92.575Z" fill="CurrentColor"/>
<path d="M104.065 300.575C110.231 301.885 116.115 303.497 122.065 305.575C120.003 313.359 117.725 321.055 115.307 328.735C114.785 330.403 114.785 330.403 114.251 332.104C113.521 334.431 112.79 336.758 112.058 339.085C110.934 342.658 109.814 346.233 108.694 349.807C107.982 352.075 107.27 354.343 106.557 356.61C106.054 358.216 106.054 358.216 105.541 359.855C105.075 361.333 105.075 361.333 104.6 362.841C104.327 363.709 104.054 364.578 103.773 365.472C103.065 367.575 103.065 367.575 102.065 369.575C97.2721 368.993 92.8947 368.033 88.3016 366.553C87.346 366.248 87.346 366.248 86.371 365.936C84.2778 365.266 82.1872 364.589 80.0965 363.911C78.6148 363.435 77.1329 362.96 75.6508 362.486C71.7455 361.234 67.8422 359.976 63.9395 358.716C57.767 356.725 51.5916 354.742 45.4162 352.76C43.9147 352.279 42.4134 351.796 40.912 351.314C28.3345 347.274 15.7223 343.36 3.06525 339.575C4.78009 332.452 6.64404 325.493 9.06525 318.575C18.647 320.8 27.976 323.67 37.3309 326.68C38.8606 327.17 40.3905 327.659 41.9204 328.147C45.9063 329.421 49.8908 330.7 53.875 331.979C57.9571 333.289 62.0405 334.595 66.1238 335.901C74.1057 338.455 82.0859 341.013 90.0652 343.575C92.148 338.142 94.0377 332.693 95.7645 327.138C96.0044 326.372 96.2443 325.606 96.4915 324.818C97.2473 322.404 98.0001 319.99 98.7527 317.575C99.2688 315.925 99.7851 314.275 100.302 312.626C101.558 308.61 102.813 304.593 104.065 300.575Z" fill="CurrentColor"/>
<path d="M306.065 13.575C306.377 14.5474 306.377 14.5474 306.695 15.5395C308.692 21.7721 310.691 28.0043 312.691 34.236C313.719 37.4367 314.746 40.6375 315.771 43.8387C321.096 60.4539 326.502 77.0379 332.065 93.575C333.905 92.9765 333.905 92.9765 335.781 92.3658C340.324 90.8902 344.87 89.4263 349.418 87.9659C351.387 87.3317 353.355 86.6944 355.322 86.0538C358.146 85.1346 360.975 84.2267 363.804 83.3211C364.685 83.0316 365.566 82.7421 366.474 82.4438C367.295 82.1834 368.116 81.9231 368.961 81.6549C369.683 81.4217 370.404 81.1885 371.148 80.9483C373.065 80.575 373.065 80.575 376.065 81.575C377.268 84.3758 377.268 84.3758 378.315 87.8875C378.671 89.0387 379.027 90.1898 379.393 91.3758C380.317 95.7753 380.317 95.7753 379.065 98.575C376.866 99.7327 376.866 99.7327 373.922 100.666C372.824 101.022 371.725 101.379 370.593 101.747C369.396 102.117 368.198 102.487 366.964 102.868C365.739 103.259 364.514 103.651 363.252 104.054C360.654 104.884 358.053 105.702 355.449 106.512C352.125 107.546 348.808 108.599 345.493 109.659C342.319 110.674 339.141 111.677 335.964 112.68C334.778 113.057 333.592 113.433 332.371 113.82C326.934 115.51 321.741 117.034 316.065 117.575C310.173 100.088 304.458 82.5553 298.916 64.9542C297.739 61.2181 296.557 57.4834 295.376 53.7488C288.108 30.7335 288.108 30.7335 285.065 19.575C291.753 16.5219 298.641 13.575 306.065 13.575Z" fill="CurrentColor"/>
</svg>
