<svg width="28" height="32" viewBox="0 0 28 32" fill="none" xmlns="http://www.w3.org/2000/svg">
<path d="M8.16667 11.9999V9.33325H24.5V11.9999H8.16667ZM8.16667 17.3333V14.6666H24.5V17.3333H8.16667ZM8.16667 22.6666V19.9999H24.5V22.6666H8.16667ZM4.66667 11.9999C4.33611 11.9999 4.05903 11.8721 3.83542 11.6166C3.61181 11.361 3.5 11.0444 3.5 10.6666C3.5 10.2888 3.61181 9.97214 3.83542 9.71659C4.05903 9.46103 4.33611 9.33325 4.66667 9.33325C4.99722 9.33325 5.27431 9.46103 5.49792 9.71659C5.72153 9.97214 5.83333 10.2888 5.83333 10.6666C5.83333 11.0444 5.72153 11.361 5.49792 11.6166C5.27431 11.8721 4.99722 11.9999 4.66667 11.9999ZM4.66667 17.3333C4.33611 17.3333 4.05903 17.2055 3.83542 16.9499C3.61181 16.6944 3.5 16.3777 3.5 15.9999C3.5 15.6221 3.61181 15.3055 3.83542 15.0499C4.05903 14.7944 4.33611 14.6666 4.66667 14.6666C4.99722 14.6666 5.27431 14.7944 5.49792 15.0499C5.72153 15.3055 5.83333 15.6221 5.83333 15.9999C5.83333 16.3777 5.72153 16.6944 5.49792 16.9499C5.27431 17.2055 4.99722 17.3333 4.66667 17.3333ZM4.66667 22.6666C4.33611 22.6666 4.05903 22.5388 3.83542 22.2833C3.61181 22.0277 3.5 21.711 3.5 21.3333C3.5 20.9555 3.61181 20.6388 3.83542 20.3833C4.05903 20.1277 4.33611 19.9999 4.66667 19.9999C4.99722 19.9999 5.27431 20.1277 5.49792 20.3833C5.72153 20.6388 5.83333 20.9555 5.83333 21.3333C5.83333 21.711 5.72153 22.0277 5.49792 22.2833C5.27431 22.5388 4.99722 22.6666 4.66667 22.6666Z" fill="#D5FF5F"/>
</svg>
