<svg width="19" height="19" viewBox="0 0 19 19" fill="none" xmlns="http://www.w3.org/2000/svg">
<path d="M3.16667 4.74992L8.00188 8.4013L8.00349 8.40263C8.54038 8.79635 8.80898 8.99333 9.10318 9.06942C9.36322 9.13668 9.63657 9.13668 9.89661 9.06942C10.1911 8.99326 10.4605 8.79571 10.9983 8.4013C10.9983 8.4013 14.0996 6.02129 15.8333 4.74992M2.375 12.5084V6.49174C2.375 5.60499 2.375 5.16128 2.54757 4.82259C2.69937 4.52467 2.94142 4.28262 3.23934 4.13082C3.57803 3.95825 4.02174 3.95825 4.90849 3.95825H14.0918C14.9786 3.95825 15.4213 3.95825 15.76 4.13082C16.0579 4.28262 16.3008 4.52467 16.4526 4.82259C16.625 5.16095 16.625 5.60412 16.625 6.48914V12.5111C16.625 13.3961 16.625 13.8386 16.4526 14.177C16.3008 14.4749 16.0579 14.7174 15.76 14.8692C15.4217 15.0416 14.9791 15.0416 14.0941 15.0416H4.90589C4.02087 15.0416 3.5777 15.0416 3.23934 14.8692C2.94142 14.7174 2.69937 14.4749 2.54757 14.177C2.375 13.8383 2.375 13.3952 2.375 12.5084Z" stroke="CurrentColor" stroke-width="2" stroke-linecap="round" stroke-linejoin="round"/>
</svg>
