<svg width="24" height="25" viewBox="0 0 24 25" fill="none" xmlns="http://www.w3.org/2000/svg">
<path d="M12 12.5001C10.9 12.5001 9.95833 12.0921 9.175 11.2761C8.39167 10.4602 8 9.47925 8 8.33342C8 7.18758 8.39167 6.20668 9.175 5.39071C9.95833 4.57473 10.9 4.16675 12 4.16675C13.1 4.16675 14.0417 4.57473 14.825 5.39071C15.6083 6.20668 16 7.18758 16 8.33342C16 9.47925 15.6083 10.4602 14.825 11.2761C14.0417 12.0921 13.1 12.5001 12 12.5001ZM4 20.8334V17.9167C4 17.3265 4.14583 16.7839 4.4375 16.2891C4.72917 15.7944 5.11667 15.4167 5.6 15.1563C6.63333 14.6181 7.68333 14.2145 8.75 13.9454C9.81667 13.6763 10.9 13.5417 12 13.5417C13.1 13.5417 14.1833 13.6763 15.25 13.9454C16.3167 14.2145 17.3667 14.6181 18.4 15.1563C18.8833 15.4167 19.2708 15.7944 19.5625 16.2891C19.8542 16.7839 20 17.3265 20 17.9167V20.8334H4ZM6 18.7501H18V17.9167C18 17.7258 17.9542 17.5522 17.8625 17.3959C17.7708 17.2397 17.65 17.1181 17.5 17.0313C16.6 16.5626 15.6917 16.211 14.775 15.9766C13.8583 15.7423 12.9333 15.6251 12 15.6251C11.0667 15.6251 10.1417 15.7423 9.225 15.9766C8.30833 16.211 7.4 16.5626 6.5 17.0313C6.35 17.1181 6.22917 17.2397 6.1375 17.3959C6.04583 17.5522 6 17.7258 6 17.9167V18.7501ZM12 10.4167C12.55 10.4167 13.0208 10.2128 13.4125 9.80477C13.8042 9.39678 14 8.90633 14 8.33342C14 7.7605 13.8042 7.27005 13.4125 6.86206C13.0208 6.45407 12.55 6.25008 12 6.25008C11.45 6.25008 10.9792 6.45407 10.5875 6.86206C10.1958 7.27005 10 7.7605 10 8.33342C10 8.90633 10.1958 9.39678 10.5875 9.80477C10.9792 10.2128 11.45 10.4167 12 10.4167Z" fill="CurrentColor"/>
</svg>
