<svg width="19" height="19" viewBox="0 0 19 19" fill="none" xmlns="http://www.w3.org/2000/svg">
<path d="M7.52278 3.3703C7.28233 2.76917 6.70013 2.375 6.05269 2.375H3.875C3.04657 2.375 2.375 3.04641 2.375 3.87484C2.375 10.9165 8.08353 16.625 15.1252 16.625C15.9536 16.625 16.625 15.9534 16.625 15.1249L16.6254 12.9469C16.6254 12.2995 16.2313 11.7173 15.6302 11.4769L13.543 10.6423C13.003 10.4263 12.3882 10.5235 11.9415 10.8959L11.4028 11.3451C10.7737 11.8694 9.84804 11.8277 9.26899 11.2486L7.75218 9.73042C7.17312 9.15137 7.13033 8.22647 7.65458 7.59737L8.10376 7.05874C8.47607 6.61196 8.57414 5.997 8.35815 5.45703L7.52278 3.3703Z" stroke="CurrentColor" stroke-width="2" stroke-linecap="round" stroke-linejoin="round"/>
</svg>
