<svg width="46" height="44" viewBox="0 0 46 44" fill="none" xmlns="http://www.w3.org/2000/svg">
<path d="M2 2H9.5L14.525 27.1063C14.6965 27.9695 15.1661 28.7449 15.8516 29.2968C16.5372 29.8487 17.3951 30.1419 18.275 30.125H36.5C37.3799 30.1419 38.2378 29.8487 38.9234 29.2968C39.6089 28.7449 40.0785 27.9695 40.25 27.1063L43.25 11.375H11.375M18.875 39.5C18.875 40.5355 18.0355 41.375 17 41.375C15.9645 41.375 15.125 40.5355 15.125 39.5C15.125 38.4645 15.9645 37.625 17 37.625C18.0355 37.625 18.875 38.4645 18.875 39.5ZM39.5 39.5C39.5 40.5355 38.6605 41.375 37.625 41.375C36.5895 41.375 35.75 40.5355 35.75 39.5C35.75 38.4645 36.5895 37.625 37.625 37.625C38.6605 37.625 39.5 38.4645 39.5 39.5Z" stroke="CurrentColor" stroke-width="4" stroke-linecap="round" stroke-linejoin="round"/>
</svg>
