<svg width="38" height="10" viewBox="0 0 38 10" fill="none" xmlns="http://www.w3.org/2000/svg">
<path d="M10 5C10 7.76142 7.76142 10 5 10C2.23858 10 0 7.76142 0 5C0 2.23858 2.23858 0 5 0C7.76142 0 10 2.23858 10 5Z" fill="CurrentColor"/>
<path d="M24 5C24 7.76142 21.7614 10 19 10C16.2386 10 14 7.76142 14 5C14 2.23858 16.2386 0 19 0C21.7614 0 24 2.23858 24 5Z" fill="CurrentColor"/>
<path d="M38 5C38 7.76142 35.7614 10 33 10C30.2386 10 28 7.76142 28 5C28 2.23858 30.2386 0 33 0C35.7614 0 38 2.23858 38 5Z" fill="CurrentColor"/>
</svg>
