<svg width="76" height="87" viewBox="0 0 76 87" fill="none" xmlns="http://www.w3.org/2000/svg">
<path d="M39.6914 0C44.6682 0 49.6449 0 54.7725 0C55.2702 2.98605 55.2702 2.98605 55.7779 6.03243C57.7961 11.6902 60.9131 15.5715 66.1776 18.5057C69.4867 19.9613 69.4867 19.9613 75.886 21.1135C75.886 25.9244 75.886 30.7353 75.886 35.6919C68.0526 35.6919 62.4873 33.9049 55.7779 30.1622C55.612 29.9963 55.4461 29.8304 55.2752 29.6595C55.2711 30.0514 55.2671 30.4433 55.2629 30.847C55.2235 34.5593 55.1796 38.2714 55.1306 41.9835C55.1056 43.8915 55.0824 45.7994 55.0631 47.7074C55.0444 49.5524 55.0211 51.3972 54.9946 53.242C54.9854 53.9422 54.9778 54.6424 54.9719 55.3426C54.9021 63.3492 53.7055 70.7179 48.2374 76.9135C47.9237 77.2855 47.6101 77.6574 47.2869 78.0407C44.2212 81.413 40.8291 83.1988 36.6752 84.9568C36.2319 85.1499 35.7887 85.343 35.332 85.5419C28.7626 87.192 20.4816 86.8384 14.5563 83.4487C14.1551 83.2303 13.754 83.0119 13.3407 82.7869C7.16334 79.0549 2.79028 73.3097 0.693529 66.4084C-0.593536 60.0191 -0.232062 52.4612 2.99411 46.7514C3.33043 46.14 3.33043 46.14 3.67354 45.5162C7.83476 38.6932 13.9783 34.7045 21.5941 32.6757C23.4796 32.3049 25.2661 32.1041 27.1867 32.1101C27.6027 32.1088 28.0187 32.1075 28.4474 32.1062C29.6373 32.173 29.6374 32.173 31.6482 32.6757C31.6482 37.6524 31.6482 42.6292 31.6482 47.7568C29.1598 47.7568 26.6714 47.7568 24.1076 47.7568C20.5779 48.9656 18.3076 50.9557 16.5494 54.2664C15.1495 57.5806 15.1682 60.5036 16.3157 63.8747C17.6404 66.9342 19.8028 68.9919 22.7802 70.4609C25.9674 71.4698 29.854 71.4682 32.9049 70.0328C36.2361 68.0173 38.0208 65.5011 39.1887 61.8324C39.4679 59.7661 39.4725 57.7257 39.4631 55.6428C39.4709 54.7372 39.4709 54.7372 39.4789 53.8133C39.4911 52.1714 39.4946 50.5298 39.4941 48.8879C39.4957 47.167 39.5086 45.4462 39.5202 43.7253C39.5406 40.4727 39.5508 37.2201 39.5574 33.9675C39.5654 30.2619 39.5847 26.5564 39.605 22.8508C39.6463 15.2339 39.6721 7.61701 39.6914 0Z" fill="currentColor"/>
</svg>
