<svg width="40" height="40" viewBox="0 0 40 40" fill="none" xmlns="http://www.w3.org/2000/svg">
<path d="M5 10.0002H8.33333M8.33333 10.0002H35M8.33333 10.0002L8.33333 33.3335C8.33333 34.2176 8.68452 35.0654 9.30964 35.6905C9.93477 36.3156 10.7826 36.6668 11.6667 36.6668H28.3333C29.2174 36.6668 30.0652 36.3156 30.6904 35.6905C31.3155 35.0654 31.6667 34.2176 31.6667 33.3335V10.0002M13.3333 10.0002V6.66683C13.3333 5.78277 13.6845 4.93493 14.3096 4.30981C14.9348 3.68469 15.7826 3.3335 16.6667 3.3335H23.3333C24.2174 3.3335 25.0652 3.68469 25.6904 4.30981C26.3155 4.93493 26.6667 5.78277 26.6667 6.66683V10.0002M16.6667 18.3335V28.3335M23.3333 18.3335V28.3335" stroke="CurrentColor" stroke-width="3.5" stroke-linecap="round" stroke-linejoin="round"/>
</svg>
