<svg width="18" height="17" viewBox="0 0 18 17" fill="none" xmlns="http://www.w3.org/2000/svg">
<path d="M6.9374 15.5834L6.6374 13.3167C6.4749 13.2577 6.32178 13.1869 6.17803 13.1042C6.03428 13.0216 5.89365 12.9331 5.75615 12.8386L3.5249 13.724L1.4624 10.3595L3.39365 8.97821C3.38115 8.89557 3.3749 8.81588 3.3749 8.73914V8.26102C3.3749 8.18428 3.38115 8.1046 3.39365 8.02196L1.4624 6.64071L3.5249 3.27612L5.75615 4.16154C5.89365 4.0671 6.0374 3.97855 6.1874 3.89591C6.3374 3.81328 6.4874 3.74244 6.6374 3.68341L6.9374 1.41675H11.0624L11.3624 3.68341C11.5249 3.74244 11.678 3.81328 11.8218 3.89591C11.9655 3.97855 12.1062 4.0671 12.2437 4.16154L14.4749 3.27612L16.5374 6.64071L14.6062 8.02196C14.6187 8.1046 14.6249 8.18428 14.6249 8.26102V8.73914C14.6249 8.81588 14.6124 8.89557 14.5874 8.97821L16.5187 10.3595L14.4562 13.724L12.2437 12.8386C12.1062 12.9331 11.9624 13.0216 11.8124 13.1042C11.6624 13.1869 11.5124 13.2577 11.3624 13.3167L11.0624 15.5834H6.9374ZM9.0374 10.9792C9.7624 10.9792 10.3812 10.7372 10.8937 10.2532C11.4062 9.76918 11.6624 9.1848 11.6624 8.50008C11.6624 7.81536 11.4062 7.23098 10.8937 6.74696C10.3812 6.26293 9.7624 6.02091 9.0374 6.02091C8.2999 6.02091 7.67803 6.26293 7.17178 6.74696C6.66553 7.23098 6.4124 7.81536 6.4124 8.50008C6.4124 9.1848 6.66553 9.76918 7.17178 10.2532C7.67803 10.7372 8.2999 10.9792 9.0374 10.9792Z" fill="#D5FF5F"/>
</svg>
